<svg class="main-svg" xmlns="http://www.w3.org/2000/svg" xmlns:xlink="http://www.w3.org/1999/xlink" width="750" height="440" style="" viewBox="0 0 750 440"><rect x="0" y="0" width="750" height="440" style="fill: rgb(255, 255, 255); fill-opacity: 1;"/><defs id="defs-22e972"><g class="clips"><clipPath id="clip22e972xyplot" class="plotclip"><rect width="590" height="260"/></clipPath><clipPath class="axesclip" id="clip22e972x"><rect x="80" y="0" width="590" height="440"/></clipPath><clipPath class="axesclip" id="clip22e972y"><rect x="0" y="100" width="750" height="260"/></clipPath><clipPath class="axesclip" id="clip22e972xy"><rect x="80" y="100" width="590" height="260"/></clipPath></g><g class="gradients"/><g class="patterns"/></defs><g class="bglayer"><rect class="bg" x="80" y="100" width="590" height="260" style="fill: rgb(234, 234, 242); fill-opacity: 1; stroke-width: 0;"/></g><g class="layer-below"><g class="imagelayer"/><g class="shapelayer"/></g><g class="cartesianlayer"><g class="subplot xy"><g class="layer-subplot"><g class="shapelayer"/><g class="imagelayer"/></g><g class="minor-gridlayer"><g class="x"/><g class="y"/></g><g class="gridlayer"><g class="x"><path class="xgrid crisp" transform="translate(161.94,0)" d="M0,100v260" style="stroke: rgb(255, 255, 255); stroke-opacity: 1; stroke-width: 1px;"/><path class="xgrid crisp" transform="translate(243.89,0)" d="M0,100v260" style="stroke: rgb(255, 255, 255); stroke-opacity: 1; stroke-width: 1px;"/><path class="xgrid crisp" transform="translate(325.83000000000004,0)" d="M0,100v260" style="stroke: rgb(255, 255, 255); stroke-opacity: 1; stroke-width: 1px;"/><path class="xgrid crisp" transform="translate(407.78,0)" d="M0,100v260" style="stroke: rgb(255, 255, 255); stroke-opacity: 1; stroke-width: 1px;"/><path class="xgrid crisp" transform="translate(489.72,0)" d="M0,100v260" style="stroke: rgb(255, 255, 255); stroke-opacity: 1; stroke-width: 1px;"/><path class="xgrid crisp" transform="translate(571.6700000000001,0)" d="M0,100v260" style="stroke: rgb(255, 255, 255); stroke-opacity: 1; stroke-width: 1px;"/><path class="xgrid crisp" transform="translate(653.61,0)" d="M0,100v260" style="stroke: rgb(255, 255, 255); stroke-opacity: 1; stroke-width: 1px;"/></g><g class="y"><path class="ygrid crisp" transform="translate(0,351.27)" d="M80,0h590" style="stroke: rgb(255, 255, 255); stroke-opacity: 1; stroke-width: 1px;"/><path class="ygrid crisp" transform="translate(0,244.42)" d="M80,0h590" style="stroke: rgb(255, 255, 255); stroke-opacity: 1; stroke-width: 1px;"/><path class="ygrid crisp" transform="translate(0,191)" d="M80,0h590" style="stroke: rgb(255, 255, 255); stroke-opacity: 1; stroke-width: 1px;"/><path class="ygrid crisp" transform="translate(0,137.57999999999998)" d="M80,0h590" style="stroke: rgb(255, 255, 255); stroke-opacity: 1; stroke-width: 1px;"/></g></g><g class="zerolinelayer"><path class="yzl zl crisp" transform="translate(0,297.85)" d="M80,0h590" style="stroke: rgb(255, 255, 255); stroke-opacity: 1; stroke-width: 2px;"/></g><path class="xlines-below"/><path class="ylines-below"/><g class="overlines-below"/><g class="xaxislayer-below"/><g class="yaxislayer-below"/><g class="overaxes-below"/><g class="plot" transform="translate(80,100)" clip-path="url(#clip22e972xyplot)"><g class="scatterlayer mlayer"><g class="trace scatter tracecdd3bd" style="stroke-miterlimit: 2; opacity: 1;"><g class="fills"/><g class="errorbars"/><g class="lines"><path class="js-line" d="M0,13L8.19,63.22L16.39,86.73L24.58,80.32L32.78,66.42L40.97,55.74L49.17,64.29L57.36,62.15L65.56,22.62L73.75,66.42L81.94,67.49L90.14,45.05L98.33,43.99L106.53,61.08L114.72,47.19L131.11,61.08L139.31,91L147.5,82.45L155.69,65.36L163.89,64.29L172.08,76.04L180.28,102.75L188.47,115.58L196.67,112.37L204.86,92.07L213.06,134.81L221.25,133.74L229.44,130.53L237.64,117.71L245.83,109.16L254.03,140.15L262.22,157.25L270.42,157.25L278.61,154.04L286.81,142.29L295,134.81L303.19,125.19L311.39,132.67L319.58,134.81L327.78,113.44L335.97,113.44L352.36,126.26L360.56,140.15L368.75,149.77L376.94,147.63L385.14,138.01L393.33,125.19L401.53,127.33L409.72,114.51L417.92,118.78L426.11,140.15L434.31,155.11L442.5,166.86L450.69,178.62L458.89,181.82L467.08,166.86L475.28,145.49L483.47,140.15L491.67,145.49L499.86,149.77L508.06,166.86L516.25,165.79L524.44,152.97L532.64,148.7L540.83,133.74L549.03,135.88L557.22,134.81L565.42,119.85L573.61,156.18L581.81,127.33" style="vector-effect: non-scaling-stroke; fill: none; stroke: rgb(0, 161, 205); stroke-opacity: 0.65; stroke-width: 5px; opacity: 1;"/></g><g class="points"/><g class="text"/></g><g class="trace scatter trace091bdc" style="stroke-miterlimit: 2; opacity: 1;"><g class="fills"/><g class="errorbars"/><g class="lines"><path class="js-line" d="M0,176.48L8.19,221.36L16.39,247L24.58,229.9L32.78,217.08L40.97,203.19L49.17,208.53L57.36,209.6L65.56,186.1L73.75,213.88L81.94,209.6L90.14,191.44L98.33,182.89L106.53,190.37L114.72,186.1L122.92,181.82L131.11,180.75L139.31,207.47L147.5,192.51L163.89,170.07L172.08,171.14L180.28,182.89L188.47,180.75L196.67,172.21L204.86,141.22L213.06,180.75L221.25,181.82L229.44,177.55L237.64,164.73L245.83,159.38L254.03,187.16L262.22,198.92L270.42,195.71L278.61,193.58L286.81,182.89L295,178.62L303.19,172.21L311.39,178.62L319.58,178.62L327.78,163.66L335.97,162.59L344.17,167.93L352.36,166.86L360.56,183.96L368.75,188.23L376.94,186.1L385.14,178.62L393.33,169L401.53,170.07L409.72,161.52L417.92,163.66L426.11,181.82L434.31,197.85L442.5,208.53L450.69,216.01L458.89,218.15L467.08,202.12L475.28,180.75L483.47,175.41L491.67,176.48L499.86,178.62L508.06,189.3L516.25,186.1L524.44,175.41L532.64,162.59L540.83,147.63L549.03,147.63L557.22,144.42L565.42,130.53L573.61,156.18L581.81,132.67" style="vector-effect: non-scaling-stroke; fill: none; stroke: rgb(235, 103, 52); stroke-opacity: 0.65; stroke-width: 3px; opacity: 1;"/></g><g class="points"/><g class="text"/></g><g class="trace scatter trace1b6001" style="stroke-miterlimit: 2; opacity: 1;"><g class="fills"/><g class="errorbars"/><g class="lines"><path class="js-line" d="M0,35.44L8.19,40.78L16.39,37.58L24.58,48.26L32.78,48.26L40.97,51.47L49.17,53.6L57.36,51.47L65.56,52.53L73.75,50.4L81.94,56.81L90.14,51.47L98.33,60.01L106.53,60.01L114.72,58.95L122.92,69.63L131.11,78.18L139.31,80.32L147.5,86.73L155.69,81.38L163.89,92.07L172.08,102.75L180.28,117.71L188.47,130.53L196.67,136.95L204.86,147.63L213.06,149.77L221.25,148.7L229.44,150.84L237.64,150.84L245.83,147.63L254.03,150.84L262.22,157.25L270.42,158.32L278.61,157.25L286.81,157.25L295,154.04L303.19,150.84L311.39,152.97L319.58,155.11L327.78,148.7L335.97,148.7L344.17,150.84L352.36,157.25L360.56,155.11L368.75,160.45L376.94,162.59L393.33,156.18L401.53,157.25L409.72,152.97L417.92,156.18L426.11,158.32L434.31,159.38L442.5,160.45L450.69,163.66L458.89,165.79L467.08,166.86L483.47,164.73L491.67,166.86L499.86,169L508.06,175.41L516.25,178.62L524.44,175.41L532.64,182.89L540.83,182.89L549.03,186.1L557.22,188.23L565.42,187.16L573.61,197.85L581.81,192.51" style="vector-effect: non-scaling-stroke; fill: none; stroke: rgb(66, 245, 158); stroke-opacity: 0.65; stroke-width: 3px; opacity: 1;"/></g><g class="points"/><g class="text"/></g></g></g><g class="overplot"/><path class="xlines-above crisp" d="M0,0" style="fill: none;"/><path class="ylines-above crisp" d="M0,0" style="fill: none;"/><g class="overlines-above"/><g class="xaxislayer-above"><g class="xtick"><text text-anchor="middle" x="0" y="373" transform="translate(80,0)" style="font-family: 'Open Sans', verdana, arial, sans-serif; font-size: 12px; fill: rgb(42, 63, 95); fill-opacity: 1; white-space: pre; opacity: 1;">1950</text></g><g class="xtick"><text text-anchor="middle" x="0" y="373" style="font-family: 'Open Sans', verdana, arial, sans-serif; font-size: 12px; fill: rgb(42, 63, 95); fill-opacity: 1; white-space: pre; opacity: 1;" transform="translate(161.94,0)">1960</text></g><g class="xtick"><text text-anchor="middle" x="0" y="373" style="font-family: 'Open Sans', verdana, arial, sans-serif; font-size: 12px; fill: rgb(42, 63, 95); fill-opacity: 1; white-space: pre; opacity: 1;" transform="translate(243.89,0)">1970</text></g><g class="xtick"><text text-anchor="middle" x="0" y="373" style="font-family: 'Open Sans', verdana, arial, sans-serif; font-size: 12px; fill: rgb(42, 63, 95); fill-opacity: 1; white-space: pre; opacity: 1;" transform="translate(325.83000000000004,0)">1980</text></g><g class="xtick"><text text-anchor="middle" x="0" y="373" style="font-family: 'Open Sans', verdana, arial, sans-serif; font-size: 12px; fill: rgb(42, 63, 95); fill-opacity: 1; white-space: pre; opacity: 1;" transform="translate(407.78,0)">1990</text></g><g class="xtick"><text text-anchor="middle" x="0" y="373" style="font-family: 'Open Sans', verdana, arial, sans-serif; font-size: 12px; fill: rgb(42, 63, 95); fill-opacity: 1; white-space: pre; opacity: 1;" transform="translate(489.72,0)">2000</text></g><g class="xtick"><text text-anchor="middle" x="0" y="373" style="font-family: 'Open Sans', verdana, arial, sans-serif; font-size: 12px; fill: rgb(42, 63, 95); fill-opacity: 1; white-space: pre; opacity: 1;" transform="translate(571.6700000000001,0)">2010</text></g><g class="xtick"><text text-anchor="middle" x="0" y="373" style="font-family: 'Open Sans', verdana, arial, sans-serif; font-size: 12px; fill: rgb(42, 63, 95); fill-opacity: 1; white-space: pre; opacity: 1;" transform="translate(653.61,0)">2020</text></g></g><g class="yaxislayer-above"><g class="ytick"><text text-anchor="end" x="79" y="4.199999999999999" transform="translate(0,351.27)" style="font-family: 'Open Sans', verdana, arial, sans-serif; font-size: 12px; fill: rgb(42, 63, 95); fill-opacity: 1; white-space: pre; opacity: 1;">−5</text></g><g class="ytick"><text text-anchor="end" x="79" y="4.199999999999999" style="font-family: 'Open Sans', verdana, arial, sans-serif; font-size: 12px; fill: rgb(42, 63, 95); fill-opacity: 1; white-space: pre; opacity: 1;" transform="translate(0,297.85)">0</text></g><g class="ytick"><text text-anchor="end" x="79" y="4.199999999999999" style="font-family: 'Open Sans', verdana, arial, sans-serif; font-size: 12px; fill: rgb(42, 63, 95); fill-opacity: 1; white-space: pre; opacity: 1;" transform="translate(0,244.42)">5</text></g><g class="ytick"><text text-anchor="end" x="79" y="4.199999999999999" style="font-family: 'Open Sans', verdana, arial, sans-serif; font-size: 12px; fill: rgb(42, 63, 95); fill-opacity: 1; white-space: pre; opacity: 1;" transform="translate(0,191)">10</text></g><g class="ytick"><text text-anchor="end" x="79" y="4.199999999999999" style="font-family: 'Open Sans', verdana, arial, sans-serif; font-size: 12px; fill: rgb(42, 63, 95); fill-opacity: 1; white-space: pre; opacity: 1;" transform="translate(0,137.57999999999998)">15</text></g></g><g class="overaxes-above"/></g></g><g class="polarlayer"/><g class="smithlayer"/><g class="ternarylayer"/><g class="geolayer"/><g class="funnelarealayer"/><g class="pielayer"/><g class="iciclelayer"/><g class="treemaplayer"/><g class="sunburstlayer"/><g class="glimages"/><defs id="topdefs-22e972"><g class="clips"/><clipPath id="legend22e972"><rect width="585" height="29" x="0" y="0"/></clipPath></defs><g class="layer-above"><g class="imagelayer"/><g class="shapelayer"/></g><g class="infolayer"><g class="legend" pointer-events="all" transform="translate(80,386)"><rect class="bg" shape-rendering="crispEdges" width="585" height="29" x="0" y="0" style="stroke: rgb(68, 68, 68); stroke-opacity: 1; fill: rgb(255, 255, 255); fill-opacity: 1; stroke-width: 0px;"/><g class="scrollbox" transform="" clip-path="url(#legend22e972)"><g class="groups"><g class="traces" transform="translate(0,14.5)" style="opacity: 1;"><text class="legendtext" text-anchor="start" x="40" y="4.680000000000001" style="font-family: 'Open Sans', verdana, arial, sans-serif; font-size: 12px; fill: rgb(42, 63, 95); fill-opacity: 1; white-space: pre;">Общий прирост</text><g class="layers" style="opacity: 1;"><g class="legendfill"/><g class="legendlines"><path class="js-line" d="M5,0h30" style="fill: none; stroke: rgb(0, 161, 205); stroke-opacity: 0.65; stroke-width: 5px;"/></g><g class="legendsymbols"><g class="legendpoints"/></g></g><rect class="legendtoggle" x="0" y="-9.5" width="192.5" height="19" style="fill: rgb(0, 0, 0); fill-opacity: 0;"/></g><g class="traces" transform="translate(195,14.5)" style="opacity: 1;"><text class="legendtext" text-anchor="start" x="40" y="4.680000000000001" style="font-family: 'Open Sans', verdana, arial, sans-serif; font-size: 12px; fill: rgb(42, 63, 95); fill-opacity: 1; white-space: pre;">Миграционный прирост</text><g class="layers" style="opacity: 1;"><g class="legendfill"/><g class="legendlines"><path class="js-line" d="M5,0h30" style="fill: none; stroke: rgb(235, 103, 52); stroke-opacity: 0.65; stroke-width: 3px;"/></g><g class="legendsymbols"><g class="legendpoints"/></g></g><rect class="legendtoggle" x="0" y="-9.5" width="192.5" height="19" style="fill: rgb(0, 0, 0); fill-opacity: 0;"/></g><g class="traces" transform="translate(390,14.5)" style="opacity: 1;"><text class="legendtext" text-anchor="start" x="40" y="4.680000000000001" style="font-family: 'Open Sans', verdana, arial, sans-serif; font-size: 12px; fill: rgb(42, 63, 95); fill-opacity: 1; white-space: pre;">Естественный прирост</text><g class="layers" style="opacity: 1;"><g class="legendfill"/><g class="legendlines"><path class="js-line" d="M5,0h30" style="fill: none; stroke: rgb(66, 245, 158); stroke-opacity: 0.65; stroke-width: 3px;"/></g><g class="legendsymbols"><g class="legendpoints"/></g></g><rect class="legendtoggle" x="0" y="-9.5" width="192.5" height="19" style="fill: rgb(0, 0, 0); fill-opacity: 0;"/></g></g></g><rect class="scrollbar" rx="20" ry="3" width="0" height="0" x="0" y="0" style="fill: rgb(128, 139, 164); fill-opacity: 1;"/></g><g class="g-gtitle"><text class="gtitle" x="37.5" y="50" text-anchor="start" dy="0em" style="font-family: 'Open Sans', verdana, arial, sans-serif; font-size: 17px; fill: rgb(42, 63, 95); opacity: 1; font-weight: normal; white-space: pre;">Рисунок 8. Общий прирост населения и его составляющие</text></g><g class="g-xtitle"/><g class="g-ytitle"><text class="ytitle" transform="rotate(-90,40.5125,230)" x="40.5125" y="230" text-anchor="middle" style="font-family: 'Open Sans', verdana, arial, sans-serif; font-size: 14px; fill: rgb(42, 63, 95); opacity: 1; font-weight: normal; white-space: pre;">На 1000 человек</text></g></g></svg>