<svg class="main-svg" xmlns="http://www.w3.org/2000/svg" xmlns:xlink="http://www.w3.org/1999/xlink" width="750" height="400" style="" viewBox="0 0 750 400"><rect x="0" y="0" width="750" height="400" style="fill: rgb(255, 255, 255); fill-opacity: 1;"/><defs id="defs-aac4cd"><g class="clips"><clipPath id="clipaac4cdxyplot" class="plotclip"><rect width="590" height="185"/></clipPath><clipPath class="axesclip" id="clipaac4cdx"><rect x="80" y="0" width="590" height="400"/></clipPath><clipPath class="axesclip" id="clipaac4cdy"><rect x="0" y="100" width="750" height="185"/></clipPath><clipPath class="axesclip" id="clipaac4cdxy"><rect x="80" y="100" width="590" height="185"/></clipPath></g><g class="gradients"/><g class="patterns"/></defs><g class="bglayer"><rect class="bg" x="80" y="100" width="590" height="185" style="fill: rgb(234, 234, 242); fill-opacity: 1; stroke-width: 0;"/></g><g class="layer-below"><g class="imagelayer"/><g class="shapelayer"/></g><g class="cartesianlayer"><g class="subplot xy"><g class="layer-subplot"><g class="shapelayer"/><g class="imagelayer"/></g><g class="minor-gridlayer"><g class="x"/><g class="y"/></g><g class="gridlayer"><g class="x"/><g class="y"><path class="ygrid crisp" transform="translate(0,278.41999999999996)" d="M80,0h590" style="stroke: rgb(255, 255, 255); stroke-opacity: 0.9; stroke-width: 4px;"/><path class="ygrid crisp" transform="translate(0,255.44)" d="M80,0h590" style="stroke: rgb(255, 255, 255); stroke-opacity: 0.9; stroke-width: 4px;"/><path class="ygrid crisp" transform="translate(0,232.46)" d="M80,0h590" style="stroke: rgb(255, 255, 255); stroke-opacity: 0.9; stroke-width: 4px;"/><path class="ygrid crisp" transform="translate(0,209.48000000000002)" d="M80,0h590" style="stroke: rgb(255, 255, 255); stroke-opacity: 0.9; stroke-width: 4px;"/><path class="ygrid crisp" transform="translate(0,186.49)" d="M80,0h590" style="stroke: rgb(255, 255, 255); stroke-opacity: 0.9; stroke-width: 4px;"/><path class="ygrid crisp" transform="translate(0,163.51)" d="M80,0h590" style="stroke: rgb(255, 255, 255); stroke-opacity: 0.9; stroke-width: 4px;"/><path class="ygrid crisp" transform="translate(0,140.53)" d="M80,0h590" style="stroke: rgb(255, 255, 255); stroke-opacity: 0.9; stroke-width: 4px;"/><path class="ygrid crisp" transform="translate(0,117.55)" d="M80,0h590" style="stroke: rgb(255, 255, 255); stroke-opacity: 0.9; stroke-width: 4px;"/></g></g><g class="zerolinelayer"/><path class="xlines-below"/><path class="ylines-below"/><g class="overlines-below"/><g class="xaxislayer-below"/><g class="yaxislayer-below"/><g class="overaxes-below"/><g class="plot" transform="translate(80,100)" clip-path="url(#clipaac4cdxyplot)"><g class="scatterlayer mlayer"><g class="trace scatter trace4e458d" style="stroke-miterlimit: 2; opacity: 1;"><g class="fills"/><g class="errorbars"/><g class="lines"><path class="js-line" d="M0,95.06L7.47,95.27L14.94,96.77L22.41,96.94L29.87,94.97L37.34,90.65L44.81,88.3L74.68,81.54L82.15,80.37L119.49,73.29L126.96,71.5L224.05,53.62L231.52,52.94L276.33,49.88L283.8,48.92L298.73,47.33L306.2,47.06L336.08,44.44L343.54,43.24L410.76,34.39L418.23,33.55L470.51,26.54L477.97,26.15L500.38,23.99L507.85,22.67L575.06,11.75L582.53,10.04L590,9.25" style="vector-effect: non-scaling-stroke; fill: none; stroke: rgb(22, 60, 128); stroke-opacity: 0.65; stroke-width: 5px; opacity: 1;"/></g><g class="points"/><g class="text"/></g><g class="trace scatter tracebb35ce" style="stroke-miterlimit: 2; opacity: 1;"><g class="fills"/><g class="errorbars"/><g class="lines"><path class="js-line" d="M0,162.34L82.15,153.55L89.62,152.73L164.3,142.95L171.77,141.82L224.05,135.38L231.52,134.52L276.33,130.24L283.8,129.69L321.14,127.89L328.61,127.56L470.51,119.86L477.97,119.87L530.25,118.83L537.72,118.68L590,116.6" style="vector-effect: non-scaling-stroke; fill: none; stroke: rgb(199, 180, 131); stroke-opacity: 0.65; stroke-width: 5px; opacity: 1;"/></g><g class="points"/><g class="text"/></g><g class="trace scatter tracecd21a1" style="stroke-miterlimit: 2; opacity: 1;"><g class="fills"/><g class="errorbars"/><g class="lines"><path class="js-line" d="M0,165.95L141.9,153.8L149.37,152.92L164.3,150.69L171.77,149.8L253.92,141.06L261.39,140.58L321.14,137.28L328.61,133.89L433.16,125.24L440.63,124.42L470.51,122.18L477.97,121.89L567.59,118.13L575.06,117.63L590,116.57" style="vector-effect: non-scaling-stroke; fill: none; stroke: rgb(199, 131, 132); stroke-opacity: 0.65; stroke-width: 5px; opacity: 1;"/></g><g class="points"/><g class="text"/></g><g class="trace scatter trace200c32" style="stroke-miterlimit: 2; opacity: 1;"><g class="fills"/><g class="errorbars"/><g class="lines"><path class="js-line" d="M0,175.75L74.68,173.41L82.15,173.3L179.24,170.47L186.71,170.09L321.14,164.9L328.61,164.86L433.16,163.32L440.63,162.99L485.44,162.29L492.91,162.22L590,161.57" style="vector-effect: non-scaling-stroke; fill: none; stroke: rgb(37, 150, 190); stroke-opacity: 0.65; stroke-width: 5px; opacity: 1;"/></g><g class="points"/><g class="text"/></g></g></g><g class="overplot"/><path class="xlines-above crisp" d="M80,286H670" style="fill: none; stroke-width: 2px; stroke: rgb(255, 255, 255); stroke-opacity: 1;"/><path class="ylines-above crisp" d="M0,0" style="fill: none;"/><g class="overlines-above"/><g class="xaxislayer-above"><path class="xtick ticks crisp" d="M0,287v5" transform="translate(139.75,0)" style="stroke: rgb(68, 68, 68); stroke-opacity: 1; stroke-width: 1px;"/><path class="xtick ticks crisp" d="M0,287v5" transform="translate(214.43,0)" style="stroke: rgb(68, 68, 68); stroke-opacity: 1; stroke-width: 1px;"/><path class="xtick ticks crisp" d="M0,287v5" transform="translate(289.11,0)" style="stroke: rgb(68, 68, 68); stroke-opacity: 1; stroke-width: 1px;"/><path class="xtick ticks crisp" d="M0,287v5" transform="translate(363.8,0)" style="stroke: rgb(68, 68, 68); stroke-opacity: 1; stroke-width: 1px;"/><path class="xtick ticks crisp" d="M0,287v5" transform="translate(438.48,0)" style="stroke: rgb(68, 68, 68); stroke-opacity: 1; stroke-width: 1px;"/><path class="xtick ticks crisp" d="M0,287v5" transform="translate(513.1600000000001,0)" style="stroke: rgb(68, 68, 68); stroke-opacity: 1; stroke-width: 1px;"/><path class="xtick ticks crisp" d="M0,287v5" transform="translate(587.85,0)" style="stroke: rgb(68, 68, 68); stroke-opacity: 1; stroke-width: 1px;"/><path class="xtick ticks crisp" d="M0,287v5" transform="translate(662.53,0)" style="stroke: rgb(68, 68, 68); stroke-opacity: 1; stroke-width: 1px;"/><g class="xtick"><text text-anchor="middle" x="0" y="306.4" transform="translate(139.75,0)" style="font-family: 'Open Sans', verdana, arial, sans-serif; font-size: 12px; fill: rgb(42, 63, 95); fill-opacity: 1; white-space: pre; opacity: 1;">1950</text></g><g class="xtick"><text text-anchor="middle" x="0" y="306.4" style="font-family: 'Open Sans', verdana, arial, sans-serif; font-size: 12px; fill: rgb(42, 63, 95); fill-opacity: 1; white-space: pre; opacity: 1;" transform="translate(214.43,0)">1960</text></g><g class="xtick"><text text-anchor="middle" x="0" y="306.4" style="font-family: 'Open Sans', verdana, arial, sans-serif; font-size: 12px; fill: rgb(42, 63, 95); fill-opacity: 1; white-space: pre; opacity: 1;" transform="translate(289.11,0)">1970</text></g><g class="xtick"><text text-anchor="middle" x="0" y="306.4" style="font-family: 'Open Sans', verdana, arial, sans-serif; font-size: 12px; fill: rgb(42, 63, 95); fill-opacity: 1; white-space: pre; opacity: 1;" transform="translate(363.8,0)">1980</text></g><g class="xtick"><text text-anchor="middle" x="0" y="306.4" style="font-family: 'Open Sans', verdana, arial, sans-serif; font-size: 12px; fill: rgb(42, 63, 95); fill-opacity: 1; white-space: pre; opacity: 1;" transform="translate(438.48,0)">1990</text></g><g class="xtick"><text text-anchor="middle" x="0" y="306.4" style="font-family: 'Open Sans', verdana, arial, sans-serif; font-size: 12px; fill: rgb(42, 63, 95); fill-opacity: 1; white-space: pre; opacity: 1;" transform="translate(513.1600000000001,0)">2000</text></g><g class="xtick"><text text-anchor="middle" x="0" y="306.4" style="font-family: 'Open Sans', verdana, arial, sans-serif; font-size: 12px; fill: rgb(42, 63, 95); fill-opacity: 1; white-space: pre; opacity: 1;" transform="translate(587.85,0)">2010</text></g><g class="xtick"><text text-anchor="middle" x="0" y="306.4" style="font-family: 'Open Sans', verdana, arial, sans-serif; font-size: 12px; fill: rgb(42, 63, 95); fill-opacity: 1; white-space: pre; opacity: 1;" transform="translate(662.53,0)">2020</text></g></g><g class="yaxislayer-above"><g class="ytick"><text text-anchor="end" x="79" y="4.199999999999999" transform="translate(0,278.41999999999996)" style="font-family: 'Open Sans', verdana, arial, sans-serif; font-size: 12px; fill: rgb(42, 63, 95); fill-opacity: 1; white-space: pre; opacity: 1;">1M</text></g><g class="ytick"><text text-anchor="end" x="79" y="4.199999999999999" style="font-family: 'Open Sans', verdana, arial, sans-serif; font-size: 12px; fill: rgb(42, 63, 95); fill-opacity: 1; white-space: pre; opacity: 1;" transform="translate(0,255.44)">2M</text></g><g class="ytick"><text text-anchor="end" x="79" y="4.199999999999999" style="font-family: 'Open Sans', verdana, arial, sans-serif; font-size: 12px; fill: rgb(42, 63, 95); fill-opacity: 1; white-space: pre; opacity: 1;" transform="translate(0,232.46)">3M</text></g><g class="ytick"><text text-anchor="end" x="79" y="4.199999999999999" style="font-family: 'Open Sans', verdana, arial, sans-serif; font-size: 12px; fill: rgb(42, 63, 95); fill-opacity: 1; white-space: pre; opacity: 1;" transform="translate(0,209.48000000000002)">4M</text></g><g class="ytick"><text text-anchor="end" x="79" y="4.199999999999999" style="font-family: 'Open Sans', verdana, arial, sans-serif; font-size: 12px; fill: rgb(42, 63, 95); fill-opacity: 1; white-space: pre; opacity: 1;" transform="translate(0,186.49)">5M</text></g><g class="ytick"><text text-anchor="end" x="79" y="4.199999999999999" style="font-family: 'Open Sans', verdana, arial, sans-serif; font-size: 12px; fill: rgb(42, 63, 95); fill-opacity: 1; white-space: pre; opacity: 1;" transform="translate(0,163.51)">6M</text></g><g class="ytick"><text text-anchor="end" x="79" y="4.199999999999999" style="font-family: 'Open Sans', verdana, arial, sans-serif; font-size: 12px; fill: rgb(42, 63, 95); fill-opacity: 1; white-space: pre; opacity: 1;" transform="translate(0,140.53)">7M</text></g><g class="ytick"><text text-anchor="end" x="79" y="4.199999999999999" style="font-family: 'Open Sans', verdana, arial, sans-serif; font-size: 12px; fill: rgb(42, 63, 95); fill-opacity: 1; white-space: pre; opacity: 1;" transform="translate(0,117.55)">8M</text></g></g><g class="overaxes-above"/></g></g><g class="polarlayer"/><g class="smithlayer"/><g class="ternarylayer"/><g class="geolayer"/><g class="funnelarealayer"/><g class="pielayer"/><g class="iciclelayer"/><g class="treemaplayer"/><g class="sunburstlayer"/><g class="glimages"/><defs id="topdefs-aac4cd"><g class="clips"/><clipPath id="legendaac4cd"><rect width="541" height="48" x="0" y="0"/></clipPath></defs><g class="layer-above"><g class="imagelayer"/><g class="shapelayer"/></g><g class="infolayer"><g class="legend" pointer-events="all" transform="translate(80,340.5)"><rect class="bg" shape-rendering="crispEdges" width="541" height="48" x="0" y="0" style="stroke: rgb(68, 68, 68); stroke-opacity: 1; fill: rgb(255, 255, 255); fill-opacity: 1; stroke-width: 0px;"/><g class="scrollbox" transform="" clip-path="url(#legendaac4cd)"><g class="groups"><g class="traces" transform="translate(0,14.5)" style="opacity: 1;"><text class="legendtext" text-anchor="start" x="40" y="4.680000000000001" style="font-family: 'Open Sans', verdana, arial, sans-serif; font-size: 12px; fill: rgb(42, 63, 95); fill-opacity: 1; white-space: pre;">Западные Нидерланды</text><g class="layers" style="opacity: 1;"><g class="legendfill"/><g class="legendlines"><path class="js-line" d="M5,0h30" style="fill: none; stroke: rgb(22, 60, 128); stroke-opacity: 0.65; stroke-width: 5px;"/></g><g class="legendsymbols"><g class="legendpoints"/></g></g><rect class="legendtoggle" x="0" y="-9.5" width="173.09375" height="19" style="fill: rgb(0, 0, 0); fill-opacity: 0;"/></g><g class="traces" transform="translate(180.203125,14.5)" style="opacity: 1;"><text class="legendtext" text-anchor="start" x="40" y="4.680000000000001" style="font-family: 'Open Sans', verdana, arial, sans-serif; font-size: 12px; fill: rgb(42, 63, 95); fill-opacity: 1; white-space: pre;">Южные Нидерланды</text><g class="layers" style="opacity: 1;"><g class="legendfill"/><g class="legendlines"><path class="js-line" d="M5,0h30" style="fill: none; stroke: rgb(199, 180, 131); stroke-opacity: 0.65; stroke-width: 5px;"/></g><g class="legendsymbols"><g class="legendpoints"/></g></g><rect class="legendtoggle" x="0" y="-9.5" width="159.15625" height="19" style="fill: rgb(0, 0, 0); fill-opacity: 0;"/></g><g class="traces" transform="translate(360.40625,14.5)" style="opacity: 1;"><text class="legendtext" text-anchor="start" x="40" y="4.680000000000001" style="font-family: 'Open Sans', verdana, arial, sans-serif; font-size: 12px; fill: rgb(42, 63, 95); fill-opacity: 1; white-space: pre;">Восточные Нидерланды</text><g class="layers" style="opacity: 1;"><g class="legendfill"/><g class="legendlines"><path class="js-line" d="M5,0h30" style="fill: none; stroke: rgb(199, 131, 132); stroke-opacity: 0.65; stroke-width: 5px;"/></g><g class="legendsymbols"><g class="legendpoints"/></g></g><rect class="legendtoggle" x="0" y="-9.5" width="177.703125" height="19" style="fill: rgb(0, 0, 0); fill-opacity: 0;"/></g><g class="traces" transform="translate(0,33.5)" style="opacity: 1;"><text class="legendtext" text-anchor="start" x="40" y="4.680000000000001" style="font-family: 'Open Sans', verdana, arial, sans-serif; font-size: 12px; fill: rgb(42, 63, 95); fill-opacity: 1; white-space: pre;">Северные Нидерланды</text><g class="layers" style="opacity: 1;"><g class="legendfill"/><g class="legendlines"><path class="js-line" d="M5,0h30" style="fill: none; stroke: rgb(37, 150, 190); stroke-opacity: 0.65; stroke-width: 5px;"/></g><g class="legendsymbols"><g class="legendpoints"/></g></g><rect class="legendtoggle" x="0" y="-9.5" width="173.9375" height="19" style="fill: rgb(0, 0, 0); fill-opacity: 0;"/></g></g></g><rect class="scrollbar" rx="20" ry="3" width="0" height="0" x="0" y="0" style="fill: rgb(128, 139, 164); fill-opacity: 1;"/></g><g class="g-gtitle"><text class="gtitle" x="37.5" y="50" text-anchor="start" dy="0em" style="font-family: 'Open Sans', verdana, arial, sans-serif; font-size: 17px; fill: rgb(42, 63, 95); opacity: 1; font-weight: normal; white-space: pre;">Рисунок 2. Население по группам провинций</text></g><g class="g-xtitle"><text class="xtitle" x="375" y="334.20625" text-anchor="middle" style="font-family: 'Open Sans', verdana, arial, sans-serif; font-size: 14px; fill: rgb(42, 63, 95); opacity: 1; font-weight: normal; white-space: pre;">Год</text></g><g class="g-ytitle"/></g></svg>