<?xml version="1.0" standalone="no"?>
<!DOCTYPE svg PUBLIC "-//W3C//DTD SVG 20010904//EN"
 "http://www.w3.org/TR/2001/REC-SVG-20010904/DTD/svg10.dtd">
<svg version="1.0" xmlns="http://www.w3.org/2000/svg"
 width="1375.000000pt" height="873.000000pt" viewBox="0 0 1375.000000 873.000000"
 preserveAspectRatio="xMidYMid meet">

<g transform="translate(0.000000,873.000000) scale(0.100000,-0.100000)"
fill="#000000" stroke="none">
<path d="M1040 8622 c0 -16 37 -42 59 -42 31 0 61 18 61 35 0 19 -14 19 -30 0
-7 -8 -21 -15 -32 -15 -10 0 -21 7 -24 15 -6 16 -34 21 -34 7z"/>
<path d="M1672 8608 c22 -33 81 -37 102 -6 19 27 0 41 -19 14 -15 -20 -39 -21
-55 -1 -7 8 -19 15 -27 15 -14 0 -14 -3 -1 -22z"/>
<path d="M221 8596 c-70 -39 -67 -172 4 -204 51 -23 134 -5 148 32 10 25 -11
28 -33 6 -31 -31 -93 -27 -119 6 -27 34 -27 84 0 118 16 20 29 26 59 26 21 0
45 -7 54 -15 20 -20 47 -20 39 0 -14 39 -104 57 -152 31z"/>
<path d="M435 8535 c-19 -18 -25 -35 -25 -65 0 -76 75 -116 131 -71 30 24 19
39 -13 17 -31 -22 -54 -20 -72 6 -29 41 -21 48 49 48 59 0 65 2 65 20 0 32
-44 70 -80 70 -19 0 -40 -9 -55 -25z m87 -12 c29 -26 22 -33 -32 -33 -54 0
-59 4 -33 32 20 22 41 23 65 1z"/>
<path d="M610 8470 c0 -73 3 -90 15 -90 12 0 15 15 16 68 0 37 3 60 6 52 3 -8
14 -39 25 -67 11 -29 25 -53 32 -53 7 0 23 33 37 73 l24 72 3 -72 c2 -56 6
-73 17 -73 12 0 15 18 15 90 0 89 0 90 -24 90 -21 0 -27 -9 -49 -72 l-24 -73
-23 73 c-21 62 -27 72 -47 72 -22 0 -23 -3 -23 -90z"/>
<path d="M859 8541 c-20 -16 -24 -29 -24 -71 0 -42 4 -55 24 -71 38 -31 121
-20 121 16 0 19 -5 19 -35 -1 -29 -19 -63 -11 -74 19 -13 33 -5 37 60 37 53 0
59 2 59 20 0 31 -44 70 -78 70 -17 0 -40 -9 -53 -19z m85 -17 c27 -26 18 -34
-35 -34 -51 0 -53 3 -26 38 13 17 42 15 61 -4z"/>
<path d="M1030 8470 c0 -79 2 -90 18 -90 10 0 28 21 47 56 47 86 55 88 55 10
0 -37 4 -66 10 -66 6 0 10 37 10 90 0 113 -14 117 -67 23 l-38 -68 -3 68 c-2
51 -6 67 -17 67 -12 0 -15 -18 -15 -90z"/>
<path d="M1220 8470 c0 -73 3 -90 15 -90 11 0 15 11 15 40 l0 40 40 0 40 0 0
-40 c0 -29 4 -40 15 -40 12 0 15 17 15 90 0 73 -3 90 -15 90 -11 0 -15 -11
-15 -40 l0 -40 -40 0 -40 0 0 40 c0 29 -4 40 -15 40 -12 0 -15 -17 -15 -90z"/>
<path d="M1410 8470 l0 -90 46 0 c61 0 84 14 84 50 0 34 -23 50 -69 50 -29 0
-31 2 -31 40 0 29 -4 40 -15 40 -12 0 -15 -17 -15 -90z m95 -40 c0 -21 -5 -26
-32 -28 -31 -3 -33 -1 -33 28 0 29 2 31 33 28 27 -2 32 -7 32 -28z"/>
<path d="M1580 8470 c0 -73 3 -90 15 -90 12 0 15 17 15 90 0 73 -3 90 -15 90
-12 0 -15 -17 -15 -90z"/>
<path d="M1650 8470 c0 -80 2 -90 18 -90 12 0 32 25 60 73 l41 72 1 -72 c0
-58 3 -73 15 -73 12 0 15 17 15 90 0 82 -2 90 -19 90 -14 0 -32 -22 -60 -72
l-41 -73 0 73 c0 57 -3 72 -15 72 -12 0 -15 -17 -15 -90z"/>
<path d="M1925 8535 c-53 -52 -18 -155 53 -155 29 0 62 26 62 48 0 18 -13 14
-33 -8 -22 -26 -42 -25 -61 2 -43 61 9 152 58 103 16 -16 36 -20 36 -7 0 18
-37 42 -64 42 -15 0 -37 -11 -51 -25z"/>
<path d="M2060 8550 c0 -5 14 -10 30 -10 l30 0 0 -80 c0 -64 3 -80 15 -80 12
0 15 16 15 80 0 79 0 80 25 80 14 0 25 5 25 10 0 6 -30 10 -70 10 -40 0 -70
-4 -70 -10z"/>
<path d="M2249 8541 c-27 -21 -18 -42 9 -23 41 29 73 25 80 -12 3 -13 -5 -16
-37 -16 -68 0 -105 -56 -63 -93 23 -21 52 -22 78 -3 16 13 21 12 36 -1 10 -9
24 -13 35 -9 17 7 17 8 1 17 -14 8 -18 23 -18 69 0 49 -4 61 -22 74 -30 21
-71 20 -99 -3z m91 -86 c0 -21 -38 -57 -57 -53 -26 5 -39 34 -24 52 18 21 81
22 81 1z"/>
<path d="M2400 8550 c0 -5 11 -10 25 -10 25 0 25 -1 25 -80 0 -64 3 -80 15
-80 12 0 15 16 15 80 l0 80 30 0 c17 0 30 5 30 10 0 6 -30 10 -70 10 -40 0
-70 -4 -70 -10z"/>
<path d="M2571 8508 c56 -139 55 -135 34 -158 -10 -11 -24 -20 -32 -20 -7 0
-13 -4 -13 -10 0 -14 33 -12 54 3 22 16 108 231 94 236 -15 5 -23 -7 -48 -77
l-23 -64 -26 69 c-17 43 -33 69 -44 71 -16 3 -16 -1 4 -50z"/>
<path d="M2755 8535 c-53 -52 -18 -155 53 -155 29 0 62 26 62 48 0 18 -13 14
-33 -8 -22 -26 -42 -25 -61 2 -43 61 9 152 58 103 16 -16 36 -20 36 -7 0 18
-37 42 -64 42 -15 0 -37 -11 -51 -25z"/>
<path d="M177 8033 c-4 -3 -7 -19 -7 -35 0 -23 4 -28 24 -28 26 0 40 23 31 51
-6 19 -35 26 -48 12z m33 -34 c0 -20 -15 -26 -25 -9 -9 15 3 43 15 35 5 -3 10
-15 10 -26z"/>
<path d="M231 7960 c-28 -44 -47 -80 -43 -80 9 0 105 150 99 156 -2 3 -27 -31
-56 -76z"/>
<path d="M254 7946 c-3 -8 -4 -25 -2 -38 2 -17 9 -23 28 -23 22 0 25 4 25 35
0 29 -4 36 -23 38 -13 2 -24 -3 -28 -12z m36 -26 c0 -16 -4 -30 -10 -30 -5 0
-10 14 -10 30 0 17 5 30 10 30 6 0 10 -13 10 -30z"/>
<path d="M193 7605 c-14 -21 -23 -50 -23 -75 0 -34 4 -41 24 -46 39 -9 60 -1
70 29 13 36 -2 61 -38 65 l-26 3 20 30 c15 20 17 29 8 29 -7 0 -23 -16 -35
-35z m52 -65 c9 -27 -1 -40 -31 -40 -20 0 -24 5 -24 30 0 25 4 30 24 30 16 0
27 -7 31 -20z"/>
<path d="M310 7625 c-16 -19 -16 -111 0 -130 15 -18 51 -20 68 -3 16 16 16
120 0 136 -17 17 -53 15 -68 -3z m55 -65 c0 -48 -2 -55 -20 -55 -16 0 -21 8
-23 44 -4 54 3 73 25 69 15 -3 18 -14 18 -58z"/>
<path d="M926 7261 c-3 -5 0 -13 7 -18 27 -22 958 -87 1597 -113 551 -22 1090
-55 1485 -90 182 -16 598 -50 925 -75 593 -45 835 -67 1912 -171 311 -30 984
-86 1495 -124 1012 -77 1218 -95 1866 -170 237 -27 527 -56 642 -65 116 -8
325 -26 465 -40 140 -13 467 -40 725 -60 259 -20 583 -46 720 -60 389 -37 677
-57 687 -47 21 21 -29 30 -252 46 -129 10 -323 26 -430 37 -107 10 -429 37
-715 59 -286 22 -587 47 -670 55 -82 9 -287 26 -455 40 -168 13 -503 47 -745
74 -647 74 -870 94 -1830 166 -478 36 -1104 87 -1390 115 -286 27 -711 68
-945 90 -234 22 -747 65 -1141 95 -394 30 -808 63 -920 74 -296 29 -953 69
-1414 86 -288 10 -1158 64 -1380 85 -244 23 -232 23 -239 11z"/>
<path d="M185 5830 c-14 -27 -25 -54 -25 -60 0 -5 16 -10 35 -10 28 0 35 -4
35 -20 0 -11 5 -20 10 -20 6 0 10 9 10 19 0 11 6 22 13 25 10 5 10 7 0 12 -7
3 -13 17 -13 30 0 13 -4 24 -10 24 -5 0 -10 -11 -10 -25 0 -20 -5 -25 -26 -25
l-26 0 26 44 c29 49 31 56 16 56 -5 0 -21 -22 -35 -50z"/>
<path d="M310 5865 c-16 -19 -16 -111 0 -130 15 -18 51 -20 68 -3 16 16 16
120 0 136 -17 17 -53 15 -68 -3z m55 -65 c0 -48 -2 -55 -20 -55 -16 0 -21 8
-23 44 -4 54 3 73 25 69 15 -3 18 -14 18 -58z"/>
<path d="M180 4091 c0 -6 14 -11 30 -11 42 0 40 -30 -5 -64 -23 -18 -35 -35
-35 -52 0 -22 4 -24 45 -24 25 0 45 5 45 10 0 6 -16 10 -35 10 -19 0 -35 4
-35 8 0 5 16 23 36 41 26 25 34 39 32 59 -3 23 -8 27 -40 30 -22 2 -38 -1 -38
-7z"/>
<path d="M310 4085 c-16 -19 -16 -111 0 -130 15 -18 51 -20 68 -3 16 16 16
120 0 136 -17 17 -53 15 -68 -3z m55 -65 c0 -48 -2 -55 -20 -55 -16 0 -21 8
-23 44 -4 54 3 73 25 69 15 -3 18 -14 18 -58z"/>
<path d="M310 2325 c-16 -19 -16 -111 0 -130 15 -18 51 -20 68 -3 16 16 16
120 0 136 -17 17 -53 15 -68 -3z m55 -65 c0 -48 -2 -55 -20 -55 -16 0 -21 8
-23 44 -4 54 3 73 25 69 15 -3 18 -14 18 -58z"/>
<path d="M710 2280 c0 -20 7 -20 6480 -20 6473 0 6480 0 6480 20 0 20 -7 20
-6480 20 -6473 0 -6480 0 -6480 -20z"/>
<path d="M717 2033 c-12 -12 -7 -22 8 -17 12 5 15 -5 15 -55 0 -48 -3 -61 -15
-61 -8 0 -15 -4 -15 -10 0 -5 20 -10 45 -10 25 0 45 5 45 10 0 6 -9 10 -20 10
-18 0 -20 7 -20 70 0 61 -2 70 -18 70 -10 0 -22 -3 -25 -7z"/>
<path d="M843 2034 c-7 -3 -13 -23 -13 -44 0 -30 5 -40 20 -45 11 -3 24 -3 30
0 17 11 11 -11 -12 -40 -20 -25 -20 -27 -2 -23 10 1 30 24 44 50 20 38 23 52
15 75 -8 21 -17 28 -40 30 -17 1 -36 0 -42 -3z m61 -29 c9 -25 -5 -46 -28 -43
-15 2 -22 11 -24 31 -3 23 0 27 21 27 14 0 27 -7 31 -15z"/>
<path d="M973 2034 c-7 -3 -13 -23 -13 -44 0 -30 5 -40 20 -45 11 -3 24 -3 30
0 17 11 11 -11 -12 -40 -20 -25 -20 -27 -2 -23 10 1 30 24 44 50 20 38 23 52
15 75 -8 21 -17 28 -40 30 -17 1 -36 0 -42 -3z m61 -29 c9 -25 -5 -46 -28 -43
-15 2 -22 11 -24 31 -3 23 0 27 21 27 14 0 27 -7 31 -15z"/>
<path d="M1097 2033 c-4 -3 -7 -21 -7 -40 0 -30 3 -33 29 -33 34 0 45 -12 36
-40 -4 -14 -15 -20 -36 -20 -16 0 -29 -4 -29 -10 0 -5 13 -10 29 -10 66 0 84
77 24 95 -47 13 -45 45 2 45 19 0 35 5 35 10 0 11 -73 14 -83 3z"/>
<path d="M3025 2030 c-4 -6 7 -10 24 -10 42 0 40 -22 -4 -71 -50 -55 -47 -69
15 -69 28 0 50 5 50 10 0 6 -16 10 -35 10 -23 0 -35 5 -35 14 0 7 16 26 35 40
36 28 44 53 23 74 -15 15 -64 16 -73 2z"/>
<path d="M3160 2025 c-18 -22 -22 -87 -8 -115 17 -31 57 -39 75 -14 16 21 17
97 3 125 -13 22 -52 25 -70 4z m54 -21 c3 -9 6 -28 6 -44 0 -41 -10 -60 -31
-60 -17 0 -19 8 -19 60 0 52 2 60 19 60 10 0 22 -7 25 -16z"/>
<path d="M3280 2014 c-23 -59 -5 -134 32 -134 43 0 53 15 53 80 0 65 -10 80
-53 80 -15 0 -26 -8 -32 -26z m64 -24 c9 -45 -3 -90 -24 -90 -22 0 -35 46 -25
90 4 20 13 30 25 30 11 0 20 -10 24 -30z"/>
<path d="M3410 2014 c-23 -59 -5 -134 32 -134 43 0 53 15 53 80 0 65 -10 80
-53 80 -15 0 -26 -8 -32 -26z m64 -24 c9 -45 -3 -90 -24 -90 -12 0 -21 10 -25
30 -10 44 3 90 25 90 11 0 20 -10 24 -30z"/>
<path d="M5340 2031 c0 -6 11 -11 25 -11 43 0 43 -29 2 -63 -24 -19 -37 -37
-37 -53 0 -22 4 -24 45 -24 25 0 45 5 45 10 0 6 -16 10 -35 10 -44 0 -44 11 1
48 28 24 35 35 32 58 -3 26 -8 29 -40 32 -22 2 -38 -1 -38 -7z"/>
<path d="M5470 2025 c-7 -8 -12 -37 -12 -65 0 -56 14 -80 46 -80 35 0 46 20
46 80 0 31 -5 61 -12 68 -17 17 -53 15 -68 -3z m55 -65 c0 -48 -2 -55 -20 -55
-16 0 -21 8 -23 44 -4 54 3 73 25 69 15 -3 18 -14 18 -58z"/>
<path d="M5600 2025 c-7 -8 -12 -37 -12 -65 0 -56 14 -80 46 -80 35 0 46 20
46 80 0 31 -5 61 -12 68 -17 17 -53 15 -68 -3z m55 -65 c0 -48 -2 -55 -20 -55
-16 0 -21 8 -23 44 -4 54 3 73 25 69 15 -3 18 -14 18 -58z"/>
<path d="M5720 2001 c0 -36 3 -40 28 -43 21 -2 27 -8 27 -28 0 -21 -5 -26 -33
-28 -39 -4 -33 -22 7 -22 64 0 82 84 21 97 -42 8 -42 43 -1 43 17 0 33 5 36
10 4 6 -12 10 -39 10 l-46 0 0 -39z"/>
<path d="M7655 2030 c-4 -6 7 -10 24 -10 42 0 40 -22 -4 -71 -50 -55 -47 -69
15 -69 28 0 50 5 50 10 0 6 -16 10 -35 10 -23 0 -35 5 -35 14 0 7 16 26 35 40
36 28 44 53 23 74 -15 15 -64 16 -73 2z"/>
<path d="M7780 2014 c-23 -59 -5 -134 32 -134 43 0 53 15 53 80 0 65 -10 80
-53 80 -15 0 -26 -8 -32 -26z m64 -24 c9 -45 -3 -90 -24 -90 -12 0 -21 10 -25
30 -10 44 3 90 25 90 11 0 20 -10 24 -30z"/>
<path d="M7912 2033 c-6 -2 -10 -9 -7 -13 3 -5 12 -7 20 -3 12 4 15 -6 15 -56
0 -48 -3 -61 -15 -61 -8 0 -15 -4 -15 -10 0 -5 20 -10 45 -10 25 0 45 5 45 10
0 6 -9 10 -20 10 -18 0 -20 7 -20 70 0 72 -6 80 -48 63z"/>
<path d="M8040 2021 c-5 -11 -10 -38 -10 -61 0 -53 15 -80 44 -80 34 0 50 25
50 80 0 27 -6 55 -13 64 -18 22 -58 20 -71 -3z m55 -61 c0 -48 -2 -55 -20 -55
-16 0 -21 8 -23 44 -4 54 3 73 25 69 15 -3 18 -14 18 -58z"/>
<path d="M9970 2031 c0 -5 12 -11 27 -13 39 -4 39 -22 -1 -59 -22 -19 -36 -42
-36 -56 0 -21 4 -23 45 -23 25 0 45 5 45 10 0 6 -16 10 -35 10 -19 0 -35 4
-35 10 0 5 16 24 35 41 37 34 46 73 19 83 -24 9 -64 7 -64 -3z"/>
<path d="M10100 2025 c-7 -8 -12 -37 -12 -65 0 -56 14 -80 46 -80 35 0 46 20
46 80 0 31 -5 61 -12 68 -17 17 -53 15 -68 -3z m55 -65 c0 -48 -2 -55 -20 -55
-16 0 -21 8 -23 44 -4 54 3 73 25 69 15 -3 18 -14 18 -58z"/>
<path d="M10227 2033 c-12 -12 -7 -22 8 -17 12 5 15 -5 15 -55 0 -48 -3 -61
-15 -61 -8 0 -15 -4 -15 -10 0 -5 20 -10 45 -10 25 0 45 5 45 10 0 6 -7 10
-15 10 -12 0 -15 14 -15 70 0 67 -1 70 -23 70 -13 0 -27 -3 -30 -7z"/>
<path d="M10350 2001 c0 -36 3 -40 28 -43 21 -2 27 -8 27 -28 0 -21 -5 -26
-33 -28 -39 -4 -33 -22 7 -22 64 0 82 84 21 97 -42 8 -42 43 -1 43 17 0 33 5
36 10 4 6 -12 10 -39 10 l-46 0 0 -39z"/>
<path d="M12280 2030 c0 -5 14 -10 30 -10 41 0 39 -25 -5 -66 -19 -17 -35 -41
-35 -53 0 -19 6 -21 52 -21 58 0 56 16 -2 22 l-35 3 43 43 c47 48 46 46 32 73
-8 13 -21 19 -45 19 -19 0 -35 -4 -35 -10z"/>
<path d="M12410 2014 c-23 -59 -5 -134 32 -134 43 0 53 15 53 80 0 65 -10 80
-53 80 -15 0 -26 -8 -32 -26z m64 -24 c9 -45 -3 -90 -24 -90 -12 0 -21 10 -25
30 -10 44 3 90 25 90 11 0 20 -10 24 -30z"/>
<path d="M12540 2031 c0 -6 11 -11 25 -11 43 0 43 -29 2 -63 -24 -19 -37 -37
-37 -53 0 -22 4 -24 45 -24 25 0 45 5 45 10 0 6 -16 10 -35 10 -44 0 -44 11 1
48 28 24 35 35 32 58 -3 26 -8 29 -40 32 -22 2 -38 -1 -38 -7z"/>
<path d="M12670 2021 c-5 -11 -10 -38 -10 -61 0 -53 15 -80 44 -80 34 0 50 25
50 80 0 27 -6 55 -13 64 -18 22 -58 20 -71 -3z m55 -61 c0 -48 -2 -55 -20 -55
-16 0 -21 8 -23 44 -4 54 3 73 25 69 15 -3 18 -14 18 -58z"/>
<path d="M2015 353 c-40 -10 -55 -34 -55 -89 0 -72 30 -101 80 -74 23 12 33
52 20 84 -7 20 -17 26 -38 26 -15 0 -33 -5 -40 -12 -9 -9 -12 -8 -12 4 0 21
38 48 67 48 13 0 23 5 23 10 0 10 -11 11 -45 3z m25 -84 c23 -42 -13 -95 -46
-68 -14 12 -19 70 -7 82 13 14 43 6 53 -14z"/>
<path d="M3904 346 c-65 -29 -56 -166 11 -166 33 0 55 26 55 64 0 41 -21 60
-60 54 -20 -3 -30 0 -30 8 0 16 31 34 59 34 11 0 23 5 26 10 9 14 -24 12 -61
-4z m44 -96 c3 -23 -2 -38 -14 -47 -25 -18 -54 1 -54 35 0 34 18 54 45 50 15
-2 21 -12 23 -38z"/>
<path d="M1430 265 c0 -50 4 -85 10 -85 6 0 10 18 10 40 l0 40 45 0 45 0 0
-40 c0 -22 5 -40 10 -40 6 0 10 35 10 85 0 50 -4 85 -10 85 -5 0 -10 -16 -10
-35 0 -35 0 -35 -45 -35 -45 0 -45 0 -45 35 0 19 -4 35 -10 35 -6 0 -10 -35
-10 -85z"/>
<path d="M3660 265 l0 -85 41 0 c22 0 49 5 60 10 24 13 25 56 2 69 -15 8 -16
12 -5 22 33 34 1 69 -62 69 l-36 0 0 -85z m85 40 c0 -15 -8 -21 -32 -23 -30
-3 -33 -1 -33 23 0 24 3 26 33 23 24 -2 32 -8 32 -23z m10 -75 c0 -22 -5 -25
-37 -28 -36 -3 -38 -2 -38 28 0 30 2 31 38 28 32 -3 37 -6 37 -28z"/>
<path d="M5570 265 c0 -50 4 -85 10 -85 6 0 10 13 10 29 0 26 4 29 41 34 46 6
59 19 59 59 0 33 -24 48 -79 48 l-41 0 0 -85z m95 30 c0 -27 -3 -30 -37 -33
-38 -3 -38 -3 -38 33 0 36 0 36 38 33 34 -3 37 -6 37 -33z"/>
<path d="M7620 337 c-35 -18 -48 -69 -27 -112 13 -26 24 -35 52 -41 55 -10 89
19 93 78 3 40 -1 49 -24 67 -30 24 -58 26 -94 8z m84 -23 c9 -8 16 -31 16 -49
0 -41 -22 -65 -59 -65 -32 0 -46 13 -56 53 -15 59 57 104 99 61z"/>
<path d="M1615 296 c-13 -9 -19 -26 -19 -51 0 -57 46 -83 90 -50 17 13 16 14
-18 8 -30 -4 -38 -2 -47 16 -11 20 -9 21 34 21 41 0 45 2 45 25 0 39 -49 58
-85 31z m65 -26 c0 -6 -13 -10 -30 -10 -30 0 -43 24 -17 33 15 5 47 -10 47
-23z"/>
<path d="M1780 245 l0 -65 38 0 c21 0 43 5 50 12 16 16 15 45 0 51 -10 3 -10
7 1 20 20 25 -3 47 -50 47 l-39 0 0 -65z m61 44 c16 -8 18 -13 8 -25 -22 -27
-57 -10 -45 21 6 18 11 18 37 4z m16 -65 c7 -18 -14 -35 -37 -31 -8 1 -16 12
-18 25 -3 18 1 22 23 22 14 0 28 -7 32 -16z"/>
<path d="M2090 220 c0 -53 4 -90 10 -90 6 0 11 17 12 38 0 20 2 53 3 72 3 43
-3 70 -16 70 -5 0 -9 -40 -9 -90z"/>
<path d="M2124 298 c-5 -8 -2 -9 11 -5 26 10 45 -11 45 -49 0 -35 -22 -56 -49
-46 -8 3 -11 0 -7 -7 10 -16 42 -14 60 5 35 34 11 114 -34 114 -10 0 -22 -5
-26 -12z"/>
<path d="M2240 295 c-10 -12 -6 -13 24 -8 29 4 36 2 36 -11 0 -11 -9 -16 -29
-16 -49 0 -68 -49 -29 -74 14 -8 23 -7 40 3 16 10 23 10 26 2 2 -6 11 -11 20
-11 12 0 13 3 4 12 -7 7 -12 30 -12 53 0 23 -5 46 -12 53 -16 16 -53 15 -68
-3z m60 -65 c0 -21 -27 -40 -47 -33 -28 10 -5 53 29 53 11 0 18 -7 18 -20z"/>
<path d="M2360 245 c0 -37 4 -65 10 -65 6 0 10 11 10 23 0 37 12 40 31 7 11
-17 23 -30 29 -30 5 0 0 16 -11 35 l-21 35 22 30 c29 40 12 39 -22 -2 l-27
-33 -1 33 c0 17 -4 32 -10 32 -6 0 -10 -28 -10 -65z"/>
<path d="M2485 296 c-13 -9 -19 -26 -19 -51 0 -57 46 -83 90 -50 17 13 16 14
-18 8 -30 -4 -38 -2 -47 16 -11 20 -9 21 34 21 41 0 45 2 45 25 0 39 -49 58
-85 31z m65 -26 c0 -6 -13 -10 -30 -10 -30 0 -43 24 -17 33 15 5 47 -10 47
-23z"/>
<path d="M4000 220 c0 -53 4 -90 10 -90 6 0 10 16 10 35 0 33 1 34 20 23 34
-21 55 1 55 57 0 56 -21 78 -55 57 -12 -7 -20 -8 -20 -2 0 5 -4 10 -10 10 -6
0 -10 -37 -10 -90z m64 74 c11 -4 16 -19 16 -49 0 -46 -13 -59 -42 -43 -21 10
-25 67 -6 86 14 14 12 14 32 6z"/>
<path d="M4144 295 c-18 -13 -16 -14 20 -12 24 1 41 -3 43 -10 3 -8 -5 -13
-20 -13 -43 0 -57 -10 -57 -41 0 -35 21 -46 55 -31 15 7 26 8 30 2 4 -6 14
-10 23 -10 12 0 13 3 4 12 -7 7 -12 30 -12 53 0 23 -5 46 -12 53 -16 16 -50
15 -74 -3z m66 -57 c0 -19 -12 -34 -33 -41 -20 -7 -33 13 -23 38 7 18 56 20
56 3z"/>
<path d="M4260 245 c0 -37 4 -65 10 -65 6 0 10 11 10 24 0 37 17 40 35 6 8
-16 20 -30 26 -30 6 0 2 15 -9 34 -20 33 -20 33 0 65 11 17 15 31 9 31 -6 0
-17 -13 -26 -30 -9 -16 -20 -30 -25 -30 -6 0 -10 14 -10 30 0 17 -4 30 -10 30
-6 0 -10 -28 -10 -65z"/>
<path d="M4386 294 c-9 -8 -16 -31 -16 -49 0 -18 7 -41 16 -49 20 -20 58 -21
74 -1 14 17 3 20 -19 6 -19 -12 -51 4 -51 24 0 11 12 15 46 15 42 0 45 1 39
23 -14 44 -60 61 -89 31z m68 -20 c4 -10 -3 -14 -29 -14 -37 0 -46 13 -18 28
20 12 39 6 47 -14z"/>
<path d="M5730 295 c-10 -12 -6 -13 24 -8 29 4 36 2 36 -11 0 -11 -9 -16 -29
-16 -49 0 -68 -49 -29 -74 14 -8 23 -7 40 3 16 10 23 10 26 2 2 -6 11 -11 20
-11 12 0 13 3 4 12 -7 7 -12 30 -12 53 0 23 -5 46 -12 53 -16 16 -53 15 -68
-3z m60 -65 c0 -21 -27 -40 -47 -33 -28 10 -5 53 29 53 11 0 18 -7 18 -20z"/>
<path d="M5850 295 c-14 -17 -7 -19 20 -5 13 7 21 5 31 -6 10 -13 9 -16 -9
-21 -25 -6 -30 -23 -7 -23 21 0 31 -30 14 -40 -7 -5 -21 -4 -30 1 -26 13 -33
11 -19 -6 16 -20 54 -19 71 1 10 13 10 20 0 36 -10 16 -10 23 1 35 10 13 9 18
-7 29 -25 18 -49 18 -65 -1z"/>
<path d="M5960 245 l0 -65 34 0 c43 0 70 24 56 49 -5 10 -6 28 -3 40 7 28 -10
41 -54 41 l-33 0 0 -65z m54 49 c30 -12 12 -44 -25 -44 -5 0 -9 11 -9 25 0 26
7 29 34 19z m20 -69 c3 -8 -3 -19 -14 -25 -30 -16 -40 -12 -40 15 0 20 5 25
24 25 13 0 26 -7 30 -15z"/>
<path d="M6096 294 c-9 -8 -16 -31 -16 -49 0 -18 7 -41 16 -49 20 -20 58 -21
74 -1 14 17 3 20 -19 6 -19 -12 -51 4 -51 24 0 11 12 15 46 15 42 0 45 1 39
23 -14 44 -60 61 -89 31z m68 -20 c4 -10 -3 -14 -29 -14 -37 0 -46 13 -18 28
20 12 39 6 47 -14z"/>
<path d="M6230 255 c-6 -30 -16 -57 -21 -60 -12 -8 -12 -65 1 -65 6 0 10 11
10 25 0 23 4 25 45 25 41 0 45 -2 45 -25 0 -14 5 -25 10 -25 6 0 10 13 10 29
0 17 -4 33 -10 36 -5 3 -10 31 -10 61 l0 54 -34 0 c-34 0 -35 -1 -46 -55z m60
-10 c0 -52 -1 -55 -26 -55 -24 0 -25 1 -18 48 8 56 11 62 30 62 10 0 14 -14
14 -55z"/>
<path d="M6366 294 c-9 -8 -16 -31 -16 -49 0 -18 7 -41 16 -49 20 -20 58 -21
74 -1 14 17 3 20 -19 6 -19 -12 -51 4 -51 24 0 11 12 15 46 15 42 0 45 1 39
23 -14 44 -60 61 -89 31z m68 -20 c4 -10 -3 -14 -29 -14 -37 0 -46 13 -18 28
20 12 39 6 47 -14z"/>
<path d="M6493 245 c0 -38 2 -55 4 -37 4 28 8 32 34 32 26 0 29 -3 29 -30 0
-16 5 -30 10 -30 6 0 10 28 10 65 0 37 -4 65 -10 65 -5 0 -10 -14 -10 -31 0
-27 -3 -30 -27 -27 -22 2 -29 10 -34 33 -4 19 -6 4 -6 -40z"/>
<path d="M6620 245 l0 -65 33 0 c36 0 57 15 57 41 0 18 -19 29 -51 29 -14 0
-19 7 -19 30 0 17 -4 30 -10 30 -6 0 -10 -28 -10 -65z m67 -21 c6 -16 -12 -34
-34 -34 -7 0 -13 11 -13 25 0 18 5 25 20 25 11 0 23 -7 27 -16z"/>
<path d="M6743 245 c0 -38 2 -53 4 -32 2 20 2 52 0 70 -2 17 -4 1 -4 -38z"/>
<path d="M7770 245 l0 -65 38 0 c21 0 43 5 50 12 16 16 15 45 0 51 -10 3 -10
7 1 20 20 25 -3 47 -50 47 l-39 0 0 -65z m61 44 c16 -8 18 -13 8 -25 -22 -27
-57 -10 -45 21 6 18 11 18 37 4z m16 -65 c7 -18 -14 -35 -37 -31 -8 1 -16 12
-18 25 -3 18 1 22 23 22 14 0 28 -7 32 -16z"/>
<path d="M7916 261 c-3 -27 -13 -54 -21 -61 -17 -14 -21 -70 -5 -70 6 0 10 11
10 25 0 23 3 25 49 25 44 0 50 -3 54 -22 3 -13 3 -3 1 21 -2 24 -4 63 -4 87
l0 44 -39 0 -38 0 -7 -49z m59 -16 c0 -47 -1 -50 -28 -53 -24 -3 -28 0 -23 15
3 10 8 35 12 56 5 28 11 37 23 35 12 -3 16 -15 16 -53z"/>
<path d="M8046 288 c-44 -63 26 -145 78 -92 9 8 16 31 16 49 0 61 -62 89 -94
43z m74 -43 c0 -43 -30 -64 -54 -39 -35 34 -5 105 35 84 13 -7 19 -21 19 -45z"/>
<path d="M8170 245 l0 -65 38 0 c21 0 43 5 50 12 16 16 15 45 0 51 -10 3 -10
7 1 20 20 25 -3 47 -50 47 l-39 0 0 -65z m61 44 c16 -8 18 -13 8 -25 -22 -27
-57 -10 -45 21 6 18 11 18 37 4z m16 -65 c7 -18 -14 -35 -37 -31 -8 1 -16 12
-18 25 -3 18 1 22 23 22 14 0 28 -7 32 -16z"/>
<path d="M8306 288 c-45 -64 20 -139 80 -93 22 17 15 19 -20 5 -19 -7 -29 -6
-41 6 -25 25 -17 34 30 34 38 0 45 3 45 19 0 48 -67 68 -94 29z m74 -18 c0 -6
-16 -10 -35 -10 -40 0 -41 2 -19 24 12 12 20 13 35 6 10 -6 19 -15 19 -20z"/>
<path d="M8430 245 l0 -65 33 0 c18 0 42 6 53 14 16 12 17 18 7 34 -6 11 -9
30 -6 42 7 27 -10 40 -54 40 l-33 0 0 -65z m54 49 c30 -12 12 -44 -25 -44 -5
0 -9 11 -9 25 0 26 7 29 34 19z m22 -66 c8 -12 -21 -38 -43 -38 -7 0 -13 11
-13 25 0 20 5 25 24 25 14 0 28 -5 32 -12z"/>
<path d="M8560 245 l0 -65 75 0 75 0 -2 68 -1 67 -6 -60 c-5 -53 -9 -60 -28
-63 -22 -3 -23 0 -23 57 0 77 -18 80 -22 4 -3 -51 -6 -58 -25 -61 -22 -3 -23
0 -23 57 0 34 -4 61 -10 61 -6 0 -10 -28 -10 -65z"/>
<path d="M8750 245 c0 -36 4 -65 10 -65 5 0 23 24 40 53 l30 52 0 -52 c0 -29
5 -53 10 -53 6 0 10 29 10 66 0 77 -12 81 -50 13 l-25 -44 -3 48 c-5 71 -22
57 -22 -18z"/>
<path d="M8897 292 c-49 -54 13 -140 73 -102 20 13 5 24 -16 12 -22 -12 -54 2
-54 23 0 11 12 15 45 15 49 0 56 10 29 48 -18 27 -55 29 -77 4z m73 -22 c0 -6
-16 -10 -35 -10 -38 0 -46 13 -18 29 19 10 53 -2 53 -19z"/>
<path d="M2925 270 c-16 -26 15 -30 266 -30 252 0 259 1 259 20 0 19 -7 20
-259 20 -163 0 -262 -4 -266 -10z"/>
</g>
</svg>
