<svg class="main-svg" xmlns="http://www.w3.org/2000/svg" xmlns:xlink="http://www.w3.org/1999/xlink" width="700" height="400" style="" viewBox="0 0 700 400"><rect x="0" y="0" width="700" height="400" style="fill: rgb(255, 255, 255); fill-opacity: 1;"/><defs id="defs-6d9c6b"><g class="clips"><clipPath id="clip6d9c6bxyplot" class="plotclip"><rect width="423.94" height="220"/></clipPath><clipPath id="clip6d9c6bxy2plot" class="plotclip"><rect width="423.94" height="220"/></clipPath><clipPath class="axesclip" id="clip6d9c6bx"><rect x="80" y="0" width="423.94" height="400"/></clipPath><clipPath class="axesclip" id="clip6d9c6by"><rect x="0" y="100" width="700" height="220"/></clipPath><clipPath class="axesclip" id="clip6d9c6bxy"><rect x="80" y="100" width="423.94" height="220"/></clipPath><clipPath class="axesclip" id="clip6d9c6by2"><rect x="0" y="100" width="700" height="220"/></clipPath><clipPath class="axesclip" id="clip6d9c6bxy2"><rect x="80" y="100" width="423.94" height="220"/></clipPath></g><g class="gradients"/><g class="patterns"/></defs><g class="bglayer"><rect class="bg" x="80" y="100" width="423.94" height="220" style="fill: rgb(234, 234, 242); fill-opacity: 1; stroke-width: 0;"/></g><g class="layer-below"><g class="imagelayer"/><g class="shapelayer"/></g><g class="cartesianlayer"><g class="subplot xy"><g class="layer-subplot"><g class="shapelayer"/><g class="imagelayer"/></g><g class="minor-gridlayer"><g class="x"/><g class="y"/><g class="y2"/></g><g class="gridlayer"><g class="x"><path class="xgrid crisp" transform="translate(176.59,0)" d="M0,100v220" style="stroke: rgb(255, 255, 255); stroke-opacity: 1; stroke-width: 1px;"/><path class="xgrid crisp" transform="translate(283.91999999999996,0)" d="M0,100v220" style="stroke: rgb(255, 255, 255); stroke-opacity: 1; stroke-width: 1px;"/><path class="xgrid crisp" transform="translate(391.25,0)" d="M0,100v220" style="stroke: rgb(255, 255, 255); stroke-opacity: 1; stroke-width: 1px;"/><path class="xgrid crisp" transform="translate(498.57,0)" d="M0,100v220" style="stroke: rgb(255, 255, 255); stroke-opacity: 1; stroke-width: 1px;"/></g><g class="y"><path class="ygrid crisp" transform="translate(0,285.65999999999997)" d="M80,0h423.94" style="stroke: rgb(255, 255, 255); stroke-opacity: 1; stroke-width: 1px;"/><path class="ygrid crisp" transform="translate(0,242.42)" d="M80,0h423.94" style="stroke: rgb(255, 255, 255); stroke-opacity: 1; stroke-width: 1px;"/><path class="ygrid crisp" transform="translate(0,199.19)" d="M80,0h423.94" style="stroke: rgb(255, 255, 255); stroke-opacity: 1; stroke-width: 1px;"/><path class="ygrid crisp" transform="translate(0,155.96)" d="M80,0h423.94" style="stroke: rgb(255, 255, 255); stroke-opacity: 1; stroke-width: 1px;"/><path class="ygrid crisp" transform="translate(0,112.73)" d="M80,0h423.94" style="stroke: rgb(255, 255, 255); stroke-opacity: 1; stroke-width: 1px;"/></g><g class="y2"><path class="y2grid crisp" transform="translate(0,285.8)" d="M80,0h423.94" style="stroke: rgb(255, 255, 255); stroke-opacity: 1; stroke-width: 1px;"/><path class="y2grid crisp" transform="translate(0,239.03)" d="M80,0h423.94" style="stroke: rgb(255, 255, 255); stroke-opacity: 1; stroke-width: 1px;"/><path class="y2grid crisp" transform="translate(0,192.26999999999998)" d="M80,0h423.94" style="stroke: rgb(255, 255, 255); stroke-opacity: 1; stroke-width: 1px;"/><path class="y2grid crisp" transform="translate(0,145.5)" d="M80,0h423.94" style="stroke: rgb(255, 255, 255); stroke-opacity: 1; stroke-width: 1px;"/></g></g><g class="zerolinelayer"/><path class="xlines-below"/><path class="ylines-below"/><g class="overlines-below"><path class="xy2-x"/><path class="xy2-y"/></g><g class="xaxislayer-below"/><g class="yaxislayer-below"/><g class="overaxes-below"><g class="xy2-x"/><g class="xy2-y"/></g><g class="plot" transform="translate(80,100)" clip-path="url(#clip6d9c6bxyplot)"><g class="scatterlayer mlayer"><g class="trace scatter trace6332d8" style="stroke-miterlimit: 2; opacity: 1;"><g class="fills"/><g class="errorbars"/><g class="lines"><path class="js-line" d="M0,90.55L5.37,73.25L10.73,64.61L16.1,76.71L21.47,11L32.2,53.37L37.56,67.2L42.93,75.85L48.3,79.31L53.66,78.44L59.03,83.63L75.13,88.82L80.49,88.82L85.86,89.68L91.23,87.95L96.59,92.28L101.96,88.82L107.33,92.28L112.69,91.41L118.06,93.14L123.43,100.06L128.79,106.11L134.16,108.7L139.52,111.3L144.89,106.11L150.26,113.89L155.62,123.4L160.99,132.91L166.36,146.75L177.09,159.72L182.46,160.58L187.82,164.04L193.19,163.17L198.55,164.04L203.92,161.45L209.29,164.04L214.65,168.36L220.02,170.09L225.39,167.5L230.75,165.77L236.12,162.31L241.48,162.31L246.85,163.17L252.22,162.31L257.58,157.99L262.95,157.99L268.32,159.72L273.68,161.45L279.05,162.31L284.42,165.77L289.78,166.63L295.15,165.77L300.51,162.31L305.88,162.31L311.25,159.72L316.61,163.17L321.98,164.04L327.35,165.77L332.71,169.23L338.08,172.69L343.45,174.41L348.81,176.14L354.18,175.28L359.54,175.28L364.91,176.14L381.01,183.93L386.38,182.2L391.74,184.79L397.11,184.79L402.47,186.52L407.84,187.38L413.21,187.38L418.57,188.25L423.94,183.93" style="vector-effect: non-scaling-stroke; fill: none; stroke: rgb(66, 245, 158); stroke-opacity: 0.65; stroke-width: 3px; opacity: 1;"/></g><g class="points"/><g class="text"/></g><g class="trace scatter trace131857" style="stroke-miterlimit: 2; opacity: 1;"><g class="fills"/><g class="errorbars"/><g class="lines"><path class="js-line" d="M0,189.98L5.37,185.66L10.73,170.09L16.1,139.83L21.47,198.62L26.83,202.08L32.2,208.14L37.56,202.08L42.93,207.27L48.3,207.27L53.66,209L59.03,205.54L64.4,207.27L69.76,206.41L75.13,204.68L80.49,207.27L85.86,207.27L91.23,206.41L96.59,206.41L101.96,206.41L107.33,203.81L112.69,202.95L118.06,205.54L123.43,202.95L128.79,202.08L134.16,203.81L139.52,201.22L144.89,199.49L150.26,199.49L155.62,199.49L160.99,198.62L166.36,201.22L171.72,202.08L177.09,200.35L182.46,200.35L187.82,203.81L193.19,201.22L198.55,202.95L203.92,202.08L209.29,202.08L214.65,201.22L220.02,201.22L225.39,200.35L230.75,198.62L236.12,197.76L241.48,200.35L246.85,199.49L252.22,196.9L257.58,197.76L268.32,197.76L273.68,194.3L279.05,196.9L284.42,196.03L289.78,195.17L295.15,196.9L305.88,195.17L311.25,196.03L316.61,196.9L321.98,196.03L327.35,196.9L332.71,199.49L338.08,199.49L343.45,200.35L348.81,202.08L354.18,201.22L359.54,202.08L364.91,201.22L370.28,202.08L375.64,199.49L381.01,199.49L386.38,200.35L391.74,196.9L397.11,196.9L407.84,195.17L413.21,196.03L418.57,188.25L423.94,187.38" style="vector-effect: non-scaling-stroke; fill: none; stroke: rgb(235, 103, 52); stroke-opacity: 0.65; stroke-width: 3px; opacity: 1;"/></g><g class="points"/><g class="text"/></g></g></g><g class="overplot"><g class="xy2" transform="translate(80,100)" clip-path="url(#clip6d9c6bxy2plot)"><g class="scatterlayer mlayer"><g class="trace scatter trace89edeb" style="stroke-miterlimit: 2; opacity: 1;"><g class="fills"/><g class="errorbars"/><g class="lines"><path class="js-line" d="M0,209L21.47,202.07L26.83,196.49L48.3,181.11L53.66,178.12L69.76,169.9L75.13,166.58L101.96,149.41L107.33,145.55L134.16,126.51L139.52,123.57L171.72,104.17L177.09,101.64L187.82,96.6L193.19,94.65L220.02,84.33L225.39,83.04L241.48,77.88L246.85,75.55L268.32,65.86L273.68,63.29L289.78,57.33L295.15,55.62L311.25,48.68L316.61,45.8L327.35,41L332.71,39.47L359.54,34.14L364.91,32.05L381.01,27.27L386.38,26.11L402.47,20.21L407.84,17.88L423.94,11" style="vector-effect: non-scaling-stroke; fill: none; stroke: rgb(0, 161, 205); stroke-opacity: 0.65; stroke-width: 5px; opacity: 1;"/></g><g class="points"/><g class="text"/></g></g></g></g><path class="xlines-above crisp" d="M0,0" style="fill: none;"/><path class="ylines-above crisp" d="M0,0" style="fill: none;"/><g class="overlines-above"><path class="xy2-x crisp" d="M0,0" style="fill: none;"/><path class="xy2-y crisp" d="M0,0" style="fill: none;"/></g><g class="xaxislayer-above"><g class="xtick"><text text-anchor="middle" x="0" y="333" transform="translate(176.59,0)" style="font-family: 'Open Sans', verdana, arial, sans-serif; font-size: 12px; fill: rgb(42, 63, 95); fill-opacity: 1; white-space: pre; opacity: 1;">1960</text></g><g class="xtick"><text text-anchor="middle" x="0" y="333" style="font-family: 'Open Sans', verdana, arial, sans-serif; font-size: 12px; fill: rgb(42, 63, 95); fill-opacity: 1; white-space: pre; opacity: 1;" transform="translate(283.91999999999996,0)">1980</text></g><g class="xtick"><text text-anchor="middle" x="0" y="333" style="font-family: 'Open Sans', verdana, arial, sans-serif; font-size: 12px; fill: rgb(42, 63, 95); fill-opacity: 1; white-space: pre; opacity: 1;" transform="translate(391.25,0)">2000</text></g><g class="xtick"><text text-anchor="middle" x="0" y="333" style="font-family: 'Open Sans', verdana, arial, sans-serif; font-size: 12px; fill: rgb(42, 63, 95); fill-opacity: 1; white-space: pre; opacity: 1;" transform="translate(498.57,0)">2020</text></g></g><g class="yaxislayer-above"><g class="ytick"><text text-anchor="end" x="79" y="4.199999999999999" transform="translate(0,285.65999999999997)" style="font-family: 'Open Sans', verdana, arial, sans-serif; font-size: 12px; fill: rgb(42, 63, 95); fill-opacity: 1; white-space: pre; opacity: 1;">10</text></g><g class="ytick"><text text-anchor="end" x="79" y="4.199999999999999" style="font-family: 'Open Sans', verdana, arial, sans-serif; font-size: 12px; fill: rgb(42, 63, 95); fill-opacity: 1; white-space: pre; opacity: 1;" transform="translate(0,242.42)">15</text></g><g class="ytick"><text text-anchor="end" x="79" y="4.199999999999999" style="font-family: 'Open Sans', verdana, arial, sans-serif; font-size: 12px; fill: rgb(42, 63, 95); fill-opacity: 1; white-space: pre; opacity: 1;" transform="translate(0,199.19)">20</text></g><g class="ytick"><text text-anchor="end" x="79" y="4.199999999999999" style="font-family: 'Open Sans', verdana, arial, sans-serif; font-size: 12px; fill: rgb(42, 63, 95); fill-opacity: 1; white-space: pre; opacity: 1;" transform="translate(0,155.96)">25</text></g><g class="ytick"><text text-anchor="end" x="79" y="4.199999999999999" style="font-family: 'Open Sans', verdana, arial, sans-serif; font-size: 12px; fill: rgb(42, 63, 95); fill-opacity: 1; white-space: pre; opacity: 1;" transform="translate(0,112.73)">30</text></g></g><g class="overaxes-above"><g class="xy2-x"/><g class="xy2-y"><g class="y2tick"><text text-anchor="start" x="504.94" y="4.199999999999999" transform="translate(0,285.8)" style="font-family: 'Open Sans', verdana, arial, sans-serif; font-size: 12px; fill: rgb(42, 63, 95); fill-opacity: 1; white-space: pre; opacity: 1;">10M</text></g><g class="y2tick"><text text-anchor="start" x="504.94" y="4.199999999999999" style="font-family: 'Open Sans', verdana, arial, sans-serif; font-size: 12px; fill: rgb(42, 63, 95); fill-opacity: 1; white-space: pre; opacity: 1;" transform="translate(0,239.03)">12M</text></g><g class="y2tick"><text text-anchor="start" x="504.94" y="4.199999999999999" style="font-family: 'Open Sans', verdana, arial, sans-serif; font-size: 12px; fill: rgb(42, 63, 95); fill-opacity: 1; white-space: pre; opacity: 1;" transform="translate(0,192.26999999999998)">14M</text></g><g class="y2tick"><text text-anchor="start" x="504.94" y="4.199999999999999" style="font-family: 'Open Sans', verdana, arial, sans-serif; font-size: 12px; fill: rgb(42, 63, 95); fill-opacity: 1; white-space: pre; opacity: 1;" transform="translate(0,145.5)">16M</text></g></g></g></g><g class="subplot xy2"/></g><g class="polarlayer"/><g class="smithlayer"/><g class="ternarylayer"/><g class="geolayer"/><g class="funnelarealayer"/><g class="pielayer"/><g class="iciclelayer"/><g class="treemaplayer"/><g class="sunburstlayer"/><g class="glimages"/><defs id="topdefs-6d9c6b"><g class="clips"/><clipPath id="legend6d9c6b"><rect width="148" height="67" x="0" y="0"/></clipPath></defs><g class="layer-above"><g class="imagelayer"/><g class="shapelayer"/></g><g class="infolayer"><g class="legend" pointer-events="all" transform="translate(540.02,100)"><rect class="bg" shape-rendering="crispEdges" width="148" height="67" x="0" y="0" style="stroke: rgb(68, 68, 68); stroke-opacity: 1; fill: rgb(255, 255, 255); fill-opacity: 1; stroke-width: 0px;"/><g class="scrollbox" transform="" clip-path="url(#legend6d9c6b)"><g class="groups"><g class="traces" transform="translate(0,14.5)" style="opacity: 1;"><text class="legendtext" text-anchor="start" x="40" y="4.680000000000001" style="font-family: 'Open Sans', verdana, arial, sans-serif; font-size: 12px; fill: rgb(42, 63, 95); fill-opacity: 1; white-space: pre;">Общее население</text><g class="layers" style="opacity: 1;"><g class="legendfill"/><g class="legendlines"><path class="js-line" d="M5,0h30" style="fill: none; stroke: rgb(0, 161, 205); stroke-opacity: 0.65; stroke-width: 5px;"/></g><g class="legendsymbols"><g class="legendpoints"/></g></g><rect class="legendtoggle" x="0" y="-9.5" width="142.21875" height="19" style="fill: rgb(0, 0, 0); fill-opacity: 0;"/></g><g class="traces" transform="translate(0,33.5)" style="opacity: 1;"><text class="legendtext" text-anchor="start" x="40" y="4.680000000000001" style="font-family: 'Open Sans', verdana, arial, sans-serif; font-size: 12px; fill: rgb(42, 63, 95); fill-opacity: 1; white-space: pre;">Рождаемость</text><g class="layers" style="opacity: 1;"><g class="legendfill"/><g class="legendlines"><path class="js-line" d="M5,0h30" style="fill: none; stroke: rgb(66, 245, 158); stroke-opacity: 0.65; stroke-width: 3px;"/></g><g class="legendsymbols"><g class="legendpoints"/></g></g><rect class="legendtoggle" x="0" y="-9.5" width="142.21875" height="19" style="fill: rgb(0, 0, 0); fill-opacity: 0;"/></g><g class="traces" transform="translate(0,52.5)" style="opacity: 1;"><text class="legendtext" text-anchor="start" x="40" y="4.680000000000001" style="font-family: 'Open Sans', verdana, arial, sans-serif; font-size: 12px; fill: rgb(42, 63, 95); fill-opacity: 1; white-space: pre;">Смертность</text><g class="layers" style="opacity: 1;"><g class="legendfill"/><g class="legendlines"><path class="js-line" d="M5,0h30" style="fill: none; stroke: rgb(235, 103, 52); stroke-opacity: 0.65; stroke-width: 3px;"/></g><g class="legendsymbols"><g class="legendpoints"/></g></g><rect class="legendtoggle" x="0" y="-9.5" width="142.21875" height="19" style="fill: rgb(0, 0, 0); fill-opacity: 0;"/></g></g></g><rect class="scrollbar" rx="20" ry="3" width="0" height="0" x="0" y="0" style="fill: rgb(128, 139, 164); fill-opacity: 1;"/></g><g class="g-gtitle"><text class="gtitle" x="35" y="50" text-anchor="start" dy="0em" style="font-family: 'Open Sans', verdana, arial, sans-serif; font-size: 17px; fill: rgb(42, 63, 95); opacity: 1; font-weight: normal; white-space: pre;">Рисунок 6. Демографический переход</text></g><g class="g-xtitle"/><g class="g-ytitle"><text class="ytitle" transform="rotate(-90,40.840625,210)" x="40.840625" y="210" text-anchor="middle" style="font-family: 'Open Sans', verdana, arial, sans-serif; font-size: 14px; fill: rgb(42, 63, 95); opacity: 1; font-weight: normal; white-space: pre;">На 1000 человек</text></g><g class="g-y2title"/></g></svg>